<svg width="16" height="17" viewBox="0 0 16 17" fill="none" xmlns="http://www.w3.org/2000/svg">
<mask id="mask0_2_537" style="mask-type:alpha" maskUnits="userSpaceOnUse" x="0" y="0" width="16" height="17">
<path d="M0 0.544999V16.853H15.982V0.542999H0V0.544999Z" fill="white"/>
</mask>
<g mask="url(#mask0_2_537)">
<path fill-rule="evenodd" clip-rule="evenodd" d="M5.49 0.990999C3.48405 1.6903 1.82777 3.1408 0.870005 5.037C0.542097 5.68559 0.303272 6.37549 0.160005 7.088C-0.198616 8.87524 0.0498578 10.7311 0.866005 12.361C1.39956 13.4173 2.15474 14.3461 3.08 15.084C3.95436 15.7806 4.96307 16.2892 6.043 16.578C7.40201 16.942 8.848 16.934 10.216 16.622C11.4604 16.3409 12.6109 15.7429 13.556 14.886C14.543 13.979 15.248 12.786 15.621 11.502C16.029 10.104 16.081 8.609 15.827 7.172H8.156V10.353H12.6C12.5113 10.861 12.3212 11.346 12.0409 11.779C11.7607 12.2119 11.3962 12.584 10.969 12.873C10.426 13.2323 9.81394 13.4742 9.172 13.583C8.532 13.693 7.865 13.706 7.225 13.579C6.57266 13.4453 5.95505 13.178 5.411 12.794C4.53982 12.1788 3.88616 11.3031 3.544 10.293C3.19568 9.26401 3.19568 8.14899 3.544 7.12C3.78926 6.39705 4.1939 5.73848 4.728 5.193C5.38981 4.51223 6.23737 4.04132 7.165 3.839C7.95853 3.67093 8.78149 3.70393 9.559 3.935C10.2178 4.13731 10.8197 4.49187 11.316 4.97L12.816 3.47C13.079 3.203 13.355 2.945 13.609 2.668C12.8483 1.9599 11.9561 1.40782 10.983 1.043C9.2123 0.397314 7.27362 0.378958 5.491 0.990999" fill="white"/>
</g>
<mask id="mask1_2_537" style="mask-type:alpha" maskUnits="userSpaceOnUse" x="0" y="0" width="14" height="8">
<path d="M13.609 0.544006H0.869995V7.11401H13.61V0.544006H13.609Z" fill="white"/>
</mask>
<g mask="url(#mask1_2_537)">
<path fill-rule="evenodd" clip-rule="evenodd" d="M5.49099 0.991002C7.27351 0.379855 9.21144 0.396792 10.983 1.039C11.956 1.399 12.846 1.959 13.609 2.665C13.355 2.941 13.079 3.2 12.816 3.467L11.316 4.967C10.8186 4.49036 10.217 4.13602 9.559 3.932C8.78192 3.69843 7.95842 3.66506 7.16499 3.835C6.24499 4.033 5.39 4.515 4.728 5.19C4.19338 5.73391 3.78862 6.39164 3.544 7.114C2.654 6.423 1.764 5.734 0.869995 5.041C1.82636 3.14283 3.48296 1.69062 5.49 0.991002" fill="#EA4335"/>
</g>
<path fill-rule="evenodd" clip-rule="evenodd" d="M0.165007 7.083C0.309007 6.373 0.545007 5.681 0.875007 5.032C1.76501 5.724 2.65501 6.412 3.54901 7.105C3.19822 8.13392 3.19822 9.25008 3.54901 10.279C2.65901 10.972 1.76901 11.664 0.879007 12.352C0.0558839 10.7257 -0.195631 8.86967 0.165007 7.083Z" fill="#FBBC05"/>
<path fill-rule="evenodd" clip-rule="evenodd" d="M8.156 7.16699H15.827C16.0878 8.60725 16.0174 10.088 15.621 11.497C15.248 12.782 14.543 13.974 13.556 14.882L10.966 12.87C11.3931 12.5808 11.7575 12.2085 12.0376 11.7754C12.3176 11.3422 12.5075 10.8571 12.596 10.349H8.151C8.156 9.28899 8.156 8.22699 8.156 7.16699Z" fill="#4285F4"/>
<path fill-rule="evenodd" clip-rule="evenodd" d="M0.869995 12.357C1.76 11.668 2.65 10.976 3.54 10.283C3.88332 11.2931 4.53668 12.169 5.407 12.786C5.95176 13.1694 6.56957 13.4366 7.222 13.571C7.862 13.702 8.524 13.685 9.168 13.575C9.81029 13.4663 10.4227 13.2245 10.966 12.865L13.556 14.877C12.623 15.741 11.452 16.328 10.216 16.613C8.84799 16.924 7.402 16.933 6.043 16.569C4.96236 16.282 3.9533 15.7732 3.08 15.075C2.15635 14.3386 1.40252 13.4115 0.869995 12.357Z" fill="#34A853"/>
</svg>
